<?xml version="1.0" encoding="UTF-8"?>
<svg version="1.1" xmlns="http://www.w3.org/2000/svg" width="1024" height="1024">
    <path
        d="M0 0 C337.92 0 675.84 0 1024 0 C1024 337.92 1024 675.84 1024 1024 C686.08 1024 348.16 1024 0 1024 C0 686.08 0 348.16 0 0 Z "
        fill="#FEFEFE" transform="translate(0,0)" />
    <path
        d="M0 0 C16.29409393 11.87453343 16.29409393 11.87453343 21.52709961 19.11206055 C25.37847166 22.05239622 29.08627928 21.43832022 33.79296875 21.28515625 C34.76325516 21.2710672 35.73354156 21.25697815 36.73323059 21.24246216 C38.80917713 21.21231375 40.88502088 21.17423856 42.96069336 21.1289978 C60.85481013 20.76023711 78.34907956 20.7020145 96 24 C96.96647461 24.17692383 97.93294922 24.35384766 98.92871094 24.53613281 C145.75819707 33.35952119 188.49376957 53.97077323 223 87 C223.55300781 87.52045898 224.10601563 88.04091797 224.67578125 88.57714844 C234.23193193 97.59940583 242.3925764 107.28803796 250 118 C250.41056641 118.5765332 250.82113281 119.15306641 251.24414062 119.74707031 C272.25954138 149.73071278 286.47546004 186.17486017 286.25 223 C286.25773438 224.26328125 286.26546875 225.5265625 286.2734375 226.828125 C286.19035664 267.20542438 267.65482775 299.42926504 239.92578125 327.33984375 C238 329 238 329 236 329 C236 329.66 236 330.32 236 331 C237.02351562 331.09925781 238.04703125 331.19851563 239.1015625 331.30078125 C244.93815033 332.03387306 250.63341129 333.40290488 256.36032104 334.72311401 C258.42694997 335.19947453 260.49471086 335.67064549 262.56274414 336.14086914 C268.85133316 337.57357991 275.13469096 339.02636236 281.41015625 340.515625 C296.24301268 344.02355717 311.14302982 347.07546911 326.09326172 350.03222656 C339.37102052 352.65964921 352.6101173 355.43054507 365.83349609 358.32080078 C369.08870506 359.01902679 372.34948155 359.68303 375.61328125 360.33984375 C376.6695874 360.55680908 377.72589355 360.77377441 378.81420898 360.99731445 C380.78166741 361.40078702 382.75113044 361.79466812 384.72290039 362.17651367 C391.35883777 363.55688178 396.08741227 365.13111841 400 371 C400.61662964 374.42572021 400.66013595 376.85173536 398.890625 379.9296875 C397.02205016 382.38103569 395.03647008 384.68552496 393 387 C392.01971594 388.13836164 391.04063093 389.27775651 390.0625 390.41796875 C387.85452789 392.98363437 385.63636054 395.53998385 383.41015625 398.08984375 C376.69186332 405.78562062 369.9974261 413.50226326 363.5625 421.4375 C359.46381578 426.48488509 355.22092441 431.39481669 350.95092773 436.296875 C347.30768696 440.48188736 343.70047491 444.69447001 340.125 448.9375 C336.13541504 453.6715015 332.10353065 458.36427083 328 463 C329.50390126 466.36256898 331.45252902 468.93029442 333.8125 471.75 C335.01326172 473.19632813 335.01326172 473.19632813 336.23828125 474.671875 C336.67865723 475.20103516 337.1190332 475.73019531 337.57275391 476.27539062 C340.23916791 479.49734556 342.86650108 482.75113672 345.5 486 C350.65164561 492.34569134 355.81948227 498.67784966 361 505 C362.50014281 506.83321648 364.00014082 508.66655146 365.5 510.5 C366.24894531 511.41523437 366.99789062 512.33046875 367.76953125 513.2734375 C369.20499935 515.02817784 370.63993796 516.78335155 372.07421875 518.5390625 C376.70323856 524.20340836 381.34822446 529.85433472 386 535.5 C394.44383691 545.75048315 394.44383691 545.75048315 398.1875 550.3125 C398.86167969 551.13363281 399.53585937 551.95476563 400.23046875 552.80078125 C400.81441406 553.52652344 401.39835938 554.25226562 402 555 C402.56460938 555.66515625 403.12921875 556.3303125 403.7109375 557.015625 C405.2187641 559.33676412 405.43273698 560.68923513 405.4375 563.4375 C405.45683594 564.17871094 405.47617187 564.91992188 405.49609375 565.68359375 C404.78279909 569.01417434 403.40647075 570.6093613 401 573 C398.12890625 574.30078125 398.12890625 574.30078125 394.5625 575.3125 C393.54397949 575.60870239 393.54397949 575.60870239 392.50488281 575.91088867 C390.00879176 576.62847452 387.50517211 577.31479438 385 578 C382.82672623 578.60381878 380.65355622 579.20801109 378.48046875 579.8125 C373.57063083 581.17362649 368.65720095 582.52097894 363.7421875 583.86328125 C358.48670408 585.30443021 353.24315877 586.78041298 348.0078125 588.29296875 C347.36275757 588.47906204 346.71770264 588.66515533 346.05310059 588.85688782 C342.94949662 589.75315161 339.84744697 590.65439624 336.74707031 591.56176758 C335.64202148 591.88169678 334.53697266 592.20162598 333.3984375 592.53125 C332.42567871 592.81548828 331.45291992 593.09972656 330.45068359 593.39257812 C328 594 328 594 325 594 C325.00460896 595.06975571 325.00921793 596.13951141 325.01396656 597.24168396 C325.12497226 623.27312101 325.2071325 649.30452736 325.25906086 675.33615112 C325.28484062 687.92486992 325.31998709 700.51343235 325.37719727 713.10205078 C325.42703884 724.07450306 325.45929267 735.04684208 325.47044247 746.01940441 C325.47695986 751.82914944 325.49227342 757.63857049 325.52865028 763.44821167 C325.5626213 768.91800726 325.57305053 774.3873458 325.56553841 779.85723686 C325.56691244 781.86314822 325.5768381 783.86907506 325.59602737 785.8748951 C325.62098288 788.61832655 325.6148963 791.36004274 325.60127258 794.10351562 C325.61583679 794.89342109 325.630401 795.68332655 325.64540654 796.49716854 C325.56691703 802.36271242 323.78549763 806.49837482 320 811 C315.73108912 814.29454605 310.81962391 815.92886935 305.72753906 817.6027832 C305.03388276 817.83319148 304.34022646 818.06359976 303.62555027 818.3009901 C301.34116534 819.05795681 299.0534551 819.80429886 296.765625 820.55078125 C295.14458661 821.08605142 293.52379791 821.62207826 291.90324402 822.15881348 C288.46966789 823.294743 285.03472585 824.42639595 281.59860229 825.55459595 C273.52665085 828.20557817 265.46271343 830.88076611 257.3985424 833.55530357 C255.62414605 834.14372931 253.84966702 834.7319058 252.07510567 835.31983376 C238.82449443 839.71023337 225.60245945 844.17051521 212.4375 848.8125 C211.24864197 849.23131943 211.24864197 849.23131943 210.0357666 849.65859985 C205.13594144 851.38497348 205.13594144 851.38497348 200.23648071 853.11238098 C188.01633077 857.41397986 175.75669362 861.60248208 163.50439072 865.81140137 C145.195827 872.10121893 126.8961169 878.41452876 108.625 884.8125 C93.35832527 890.15726514 78.06336548 895.41551057 62.75 900.625 C61.76058411 900.9616568 60.77116821 901.2983136 59.75177002 901.64517212 C54.30975207 903.49594618 48.8659342 905.3412881 43.42010498 907.18081665 C41.09859163 907.96662764 38.77890149 908.75762201 36.45947266 909.54956055 C35.10585576 910.00848218 33.75218151 910.4672347 32.3984375 910.92578125 C31.25036621 911.31677002 30.10229492 911.70775879 28.91943359 912.1105957 C16.99862091 915.7422666 3.81231472 908.66421737 -7.4453125 904.76171875 C-8.59721573 904.3642897 -9.74911896 903.96686066 -10.93592834 903.55738831 C-14.02635902 902.49053388 -17.1161002 901.42171356 -20.20550156 900.35188293 C-22.80139073 899.45338548 -25.39788929 898.55665612 -27.99438 897.65989876 C-44.59708896 891.92540153 -61.18510214 886.14938011 -77.76464844 880.3482666 C-97.59494997 873.41310482 -117.48657797 866.66003952 -137.37988281 859.90820312 C-145.9223498 857.00842301 -154.46212155 854.10076115 -163 851.1875 C-163.8106189 850.9109256 -164.62123779 850.6343512 -165.4564209 850.34939575 C-176.16290246 846.69475661 -186.86126945 843.01690422 -197.5546875 839.32421875 C-198.72702438 838.91942795 -199.89936127 838.51463715 -201.10722351 838.09757996 C-207.061397 836.04077692 -213.0142573 833.98027409 -218.96508789 831.91381836 C-229.29021985 828.33134786 -239.61847146 824.77140579 -250.00390625 821.3671875 C-252.4075859 820.57200354 -254.81090568 819.77574011 -257.21417236 818.97930908 C-259.35509575 818.27703073 -261.50192439 817.59585274 -263.64990234 816.91552734 C-271.49459488 814.35899157 -278.30442465 811.46311475 -283.07217979 804.41501236 C-284.43512672 800.86741375 -284.28756296 797.37021219 -284.2784729 793.62249756 C-284.2842653 792.76970097 -284.2900577 791.91690438 -284.29602563 791.03826547 C-284.31305229 788.17618832 -284.31590444 785.31427217 -284.31884766 782.45214844 C-284.32814399 780.40231937 -284.33831222 778.3524941 -284.34928894 776.30267334 C-284.37663622 770.73284797 -284.39175238 765.16304795 -284.40471697 759.59317303 C-284.42032682 753.77418286 -284.44712386 747.95524464 -284.4727478 742.1362915 C-284.51957362 731.11499519 -284.55629933 720.09368915 -284.58942068 709.07234406 C-284.62761519 696.52590412 -284.67703234 683.97951629 -284.72740483 671.43312025 C-284.83078126 645.62211878 -284.92002309 619.81108383 -285 594 C-291.94740814 591.99046377 -298.8953053 589.98262469 -305.84350586 587.97583008 C-308.19484917 587.29651053 -310.54609033 586.61683725 -312.8972168 585.93676758 C-315.18122127 585.2761617 -317.46537096 584.6160577 -319.74966431 583.95645142 C-322.04390493 583.29394899 -324.33782905 582.63034957 -326.63143921 581.96566772 C-332.43864467 580.28873523 -338.25287045 578.6511553 -344.09033203 577.08251953 C-345.22640396 576.77447891 -346.36247589 576.46643829 -347.53297424 576.14906311 C-349.68128609 575.56889401 -351.83201076 574.9975583 -353.98545837 574.43675232 C-359.94474579 572.82135372 -365.40867704 571.2980474 -369.375 566.25 C-370.40039218 562.55858816 -370.98870877 559.71078671 -370 556 C-367.45062207 551.9453361 -364.25167918 548.49606876 -361 545 C-360.4755127 544.42878418 -359.95102539 543.85756836 -359.41064453 543.26904297 C-356.62676015 540.23737401 -353.82543463 537.2229826 -351.0078125 534.22265625 C-348.15453222 531.17862987 -345.38811991 528.07033123 -342.6640625 524.91015625 C-340.68459874 522.63795489 -338.6541683 520.41540128 -336.625 518.1875 C-333.42347567 514.64839998 -330.36853937 511.02896894 -327.375 507.3125 C-324.31290562 503.52741112 -321.15082334 500.03573631 -317.66015625 496.6484375 C-313.58729826 492.60432909 -309.96335299 488.13011063 -306.2421875 483.765625 C-305.74509277 483.18353271 -305.24799805 482.60144043 -304.73583984 482.00170898 C-303.70319654 480.79174803 -302.67227138 479.58031862 -301.64306641 478.36743164 C-299.14881261 475.44279525 -296.62612539 472.5708974 -293.96875 469.79296875 C-293.49928955 469.29837158 -293.0298291 468.80377441 -292.54614258 468.29418945 C-291.26362072 466.95451299 -289.96623079 465.62911606 -288.66796875 464.3046875 C-286.75741988 462.21069124 -286.75741988 462.21069124 -287.22021484 460.08422852 C-288.10173149 457.72808964 -289.18030656 456.26181239 -290.80859375 454.34765625 C-291.38552979 453.66050537 -291.96246582 452.97335449 -292.55688477 452.26538086 C-293.17748779 451.53843018 -293.79809082 450.81147949 -294.4375 450.0625 C-295.72822615 448.52483244 -297.01727876 446.98575862 -298.3046875 445.4453125 C-298.93858398 444.68766602 -299.57248047 443.93001953 -300.22558594 443.14941406 C-302.57970466 440.29778208 -304.82605829 437.38251731 -307.0625 434.4375 C-310.7823604 429.54487574 -314.60860248 424.75715455 -318.5 420 C-323.26448042 414.17305704 -327.90284259 408.27139192 -332.46484375 402.28515625 C-334.78537451 399.25713537 -337.16812658 396.28221453 -339.56323242 393.31298828 C-341.58812119 390.80031561 -343.59763131 388.27561852 -345.60449219 385.74853516 C-346.50020831 384.62622605 -347.40144947 383.50829175 -348.30957031 382.39599609 C-355.44863317 373.63235698 -355.44863317 373.63235698 -355.8125 368.6875 C-354.85754382 364.35346811 -353.59275178 361.58651405 -350 359 C-341.77704947 355.54237402 -332.54245658 354.4697639 -323.8125 352.875 C-321.36002479 352.42063791 -318.90793068 351.96425624 -316.45585632 351.50773621 C-314.71696487 351.18406443 -312.97795883 350.86100771 -311.23884583 350.53852844 C-304.5914483 349.30397031 -297.95085562 348.03613292 -291.3125 346.75390625 C-289.83614075 346.46886734 -289.83614075 346.46886734 -288.32995605 346.17807007 C-287.3412854 345.98717804 -286.35261475 345.79628601 -285.33398438 345.59960938 C-269.00470491 342.44676255 -252.67067058 339.36052479 -236.28338623 336.52374268 C-223.67475821 334.33865427 -211.11443759 331.93233144 -198.56176758 329.44677734 C-191.28142252 328.00730954 -183.99553812 326.60709019 -176.69140625 325.29296875 C-175.97943588 325.16263748 -175.26746552 325.03230621 -174.53392029 324.89802551 C-171.27374304 324.31986078 -168.32712623 324 -165 324 C-165.99 319.71 -166.98 315.42 -168 311 C-168.98355469 310.75507813 -169.96710938 310.51015625 -170.98046875 310.2578125 C-188.01335344 305.76900925 -204.66470816 298.7151162 -218 287 C-218.82757813 286.29359375 -219.65515625 285.5871875 -220.5078125 284.859375 C-228.27924275 277.72915187 -233.21911617 269.70025853 -233.75 259 C-233.31149307 249.3314569 -228.8013199 240.8013199 -222 234 C-214.58961597 227.31933121 -206.61179058 222.00179756 -198 217 C-196.65421875 216.20335937 -196.65421875 216.20335937 -195.28125 215.390625 C-189.41432584 212 -189.41432584 212 -186 212 C-188.68978141 209.29007042 -191.39981441 206.61053183 -194.1640625 203.9765625 C-210.3818537 188.37552395 -227.1375396 167.30607794 -228.5625 143.8125 C-228.19244019 136.45905343 -224.74219984 130.3033918 -219.5 125.25 C-199.68404128 109.47887181 -172.92665159 109.63363195 -149 110 C-149.19634033 109.37657715 -149.39268066 108.7531543 -149.5949707 108.11083984 C-155.23274398 90.12894412 -160.09374669 72.95861998 -160.3125 54 C-160.34150391 53.16210938 -160.37050781 52.32421875 -160.40039062 51.4609375 C-160.486294 42.92346326 -157.54084022 35.82468736 -151.77734375 29.50390625 C-140.4339562 19.90565525 -122.25501455 22.14390886 -108.55419922 23.18603516 C-94.95633031 24.74634215 -80.05535654 29.5177755 -68 36 C-67.85304688 34.15148437 -67.85304688 34.15148437 -67.703125 32.265625 C-66.46822137 18.09076713 -64.64358244 3.87167663 -53.6875 -6.3125 C-36.971936 -19.33715391 -15.54055353 -10.28198934 0 0 Z "
        fill="#18232A" transform="translate(485,64)" />
    <path
        d="M0 0 C3.10005693 0.00313649 6.19913417 -0.02029139 9.29907227 -0.0456543 C59.54307253 -0.20568291 108.35048378 15.91106613 147.69946289 47.31567383 C148.27680176 47.77586914 148.85414063 48.23606445 149.44897461 48.71020508 C183.21092304 75.8842175 211.44446445 116.13882667 216.28540039 160.14379883 C218.28803663 182.33156888 217.04319837 204.4674783 202.90649414 222.72192383 C191.17534958 236.50861407 175.80920994 242.74957569 158.69946289 247.31567383 C157.1487207 247.74299805 157.1487207 247.74299805 155.56665039 248.17895508 C101.72080278 261.33677498 33.89308888 256.13253267 -14.42553711 228.53051758 C-23.10307303 223.23963109 -30.31738917 216.88490905 -36.69506836 208.97973633 C-39.48761046 206.08527663 -41.76269896 205.37434708 -45.73803711 204.94067383 C-49.88209275 205.37689021 -51.39183983 206.40697655 -54.30053711 209.31567383 C-56.0611911 212.83698181 -55.86830336 216.462761 -54.72241211 220.20239258 C-51.88375904 226.56355604 -47.13447818 231.40325968 -42.30053711 236.31567383 C-41.60959961 237.01950195 -40.91866211 237.72333008 -40.20678711 238.44848633 C-33.98143526 244.37186215 -26.82012095 248.30858233 -19.30053711 252.31567383 C-18.40206055 252.8287207 -17.50358398 253.34176758 -16.57788086 253.87036133 C17.31165966 272.33741581 59.20746474 275.54420041 97.01196289 275.56567383 C98.08082733 275.56634857 99.14969177 275.56702332 100.25094604 275.56771851 C126.4361834 275.54146481 151.49989743 272.80650356 176.69946289 265.31567383 C176.69946289 265.97567383 176.69946289 266.63567383 176.69946289 267.31567383 C174.72513059 268.72803504 172.75331454 270.02970885 170.69946289 271.31567383 C169.13711914 272.36174805 169.13711914 272.36174805 167.54321289 273.42895508 C148.98602278 285.71543872 128.80487274 294.06622435 106.69946289 297.31567383 C106.06041016 297.4171875 105.42135742 297.51870117 104.76293945 297.62329102 C75.26066519 302.13473382 44.00488417 300.30172297 14.69946289 295.31567383 C13.6559668 295.13907227 12.6124707 294.9624707 11.53735352 294.78051758 C-5.70765887 291.72730227 -25.25210418 287.45461103 -40.30053711 278.31567383 C-44.33027111 277.50343057 -48.44074006 277.24598664 -52.09350586 279.34692383 C-54.1917072 281.46275711 -55.22053788 283.59187129 -55.54663086 286.54223633 C-55.34499555 290.4318464 -54.73078735 292.74663319 -52.36303711 295.87817383 C-51.35241211 296.68254883 -50.34178711 297.48692383 -49.30053711 298.31567383 C-48.6547168 298.87383789 -48.00889648 299.43200195 -47.34350586 300.00708008 C-26.24606215 317.79793976 -0.10108884 331.89968434 26.69946289 338.31567383 C26.87167358 339.24742432 26.87167358 339.24742432 27.04736328 340.19799805 C32.73639391 370.61916523 41.38911416 399.93987129 52.26586914 428.89379883 C52.71721222 430.09692467 52.71721222 430.09692467 53.17767334 431.32435608 C54.65969898 435.26663693 56.15542224 439.20295082 57.67260742 443.13183594 C58.21683727 444.56155847 58.76095126 445.99132511 59.30493164 447.42114258 C59.56270889 448.07596619 59.82048615 448.73078979 60.08607483 449.40545654 C61.81252372 453.97649133 61.81252372 453.97649133 60.69946289 457.31567383 C58.40231323 458.21897888 58.40231323 458.21897888 55.31616211 458.96972656 C54.1634079 459.25690048 53.01065369 459.5440744 51.82296753 459.83995056 C50.56275787 460.14002518 49.30254822 460.44009979 48.00415039 460.74926758 C46.69601125 461.07053066 45.38816367 461.39298308 44.08059692 461.71656799 C40.6202301 462.56971268 37.1563255 463.4075082 33.69140625 464.24194336 C29.54108377 465.24422398 25.39500331 466.26386514 21.24835396 467.28121281 C18.00702512 468.07612084 14.76500153 468.86761688 11.52120972 469.65245056 C3.93842355 471.49179317 -3.60726285 473.43715593 -11.14035034 475.46839905 C-12.18321198 475.74799973 -13.22607361 476.0276004 -14.30053711 476.31567383 C-15.39822922 476.61150612 -15.39822922 476.61150612 -16.51809692 476.91331482 C-24.70531359 478.76145559 -32.67156646 475.94863962 -40.55053711 473.87817383 C-41.97198942 473.51225378 -43.39370869 473.14736937 -44.81567383 472.78344727 C-47.80668547 472.0173486 -50.79656593 471.2470256 -53.78588867 470.47436523 C-58.11545559 469.35891317 -62.45240196 468.27513395 -66.79272461 467.20239258 C-96.37511062 459.88529774 -125.8627933 452.19375981 -155.30053711 444.31567383 C-158.59135694 443.43744979 -161.88303216 442.56255667 -165.17553711 441.69067383 C-166.32022461 441.38516602 -166.32022461 441.38516602 -167.48803711 441.07348633 C-172.73199668 439.68694787 -177.99744398 438.4548568 -183.30053711 437.31567383 C-182.90866211 436.16067383 -182.51678711 435.00567383 -182.11303711 433.81567383 C-181.50866394 431.98240856 -180.90453315 430.14906338 -180.30053711 428.31567383 C-179.89061523 427.10524414 -179.48069336 425.89481445 -179.05834961 424.64770508 C-164.60950195 381.21522099 -176.48923701 331.82997355 -185.79450989 288.38566589 C-190.14701274 268.02960908 -194.04084401 247.75290106 -196.03466797 227.0065918 C-196.19911313 225.34220747 -196.37910088 223.67917872 -196.58398438 222.01928711 C-197.61999567 213.31903026 -197.58760536 204.56596709 -197.61303711 195.81567383 C-197.61565552 194.95384491 -197.61827393 194.09201599 -197.62097168 193.20407104 C-197.62582524 178.23864263 -196.42015279 163.9908544 -193.30053711 149.31567383 C-193.14568848 148.55399902 -192.99083984 147.79232422 -192.83129883 147.00756836 C-191.87081806 142.37747668 -190.68528782 137.83780183 -189.30053711 133.31567383 C-188.95514893 132.18500488 -188.95514893 132.18500488 -188.6027832 131.03149414 C-173.93179567 84.14094233 -141.64864689 46.13944536 -98.33569336 23.19848633 C-78.9645682 13.14749733 -58.28820258 5.75432065 -36.63574219 2.6640625 C-34.91984699 2.40806852 -33.20915495 2.11655681 -31.50244141 1.80517578 C-21.01165128 0.03316285 -10.61629922 -0.02235359 0 0 Z "
        fill="#FAF8F6" transform="translate(530.300537109375,108.684326171875)" />
    <path
        d="M0 0 C4.52821597 3.88132797 8.43112663 7.3468706 12.375 11.6875 C13.07870728 12.46178345 13.07870728 12.46178345 13.79663086 13.25170898 C17.60198785 17.47465638 21.18982701 21.8570578 24.75390625 26.28515625 C27.0883059 29.10673495 29.51990598 31.80590712 32 34.5 C36.09351091 38.94727112 39.92442499 43.54717463 43.71875 48.25 C46.85666984 52.03269788 50.18986667 55.62078553 53.51953125 59.234375 C56.00464232 62.00517601 58.35444333 64.85051362 60.6875 67.75 C63.71700711 71.50360722 66.83644572 74.96932864 70.3125 78.30859375 C72.20106425 80.20152967 73.90291919 82.20502904 75.625 84.25 C79.9270406 89.26193549 79.9270406 89.26193549 86.07380676 91.19694519 C92.72646417 91.31233242 98.36297172 90.11625861 104.69921875 88.17578125 C105.71197876 87.87802292 106.72473877 87.58026459 107.76818848 87.27348328 C109.94502926 86.63206243 112.12011189 85.98464962 114.29354858 85.33178711 C120.10453899 83.58660373 125.92842659 81.88525555 131.75 80.17578125 C132.9376445 79.82556915 134.125289 79.47535706 135.34892273 79.11453247 C147.25850444 75.60909283 159.21558311 72.28513865 171.1875 69 C173.03411092 68.49264032 174.88070957 67.98523595 176.72729492 67.4777832 C179.4115906 66.74016095 182.09590886 66.00262389 184.78042603 65.26580811 C191.58631027 63.3955182 198.38399316 61.49679338 205.1796875 59.58984375 C217.29916205 56.18990674 229.42889794 52.82811408 241.56567383 49.49047852 C243.85504351 48.8604087 246.14409559 48.22918397 248.43286133 47.59692383 C251.79701984 46.66763605 255.162065 45.74162785 258.52734375 44.81640625 C259.55415756 44.53213272 260.58097137 44.24785919 261.63890076 43.95497131 C262.57911575 43.69727463 263.51933075 43.43957794 264.48803711 43.17407227 C265.31420029 42.9464772 266.14036346 42.71888214 266.99156189 42.48439026 C269 42 269 42 271 42 C271 106.02 271 170.04 271 236 C264.55053782 238.57978487 258.20224089 241.02287948 251.62109375 243.1796875 C250.74879623 243.46859863 249.87649872 243.75750977 248.97776794 244.05517578 C247.10674594 244.67472946 245.2352998 245.29300352 243.36346436 245.91009521 C238.30371293 247.57866591 233.24752079 249.25794663 228.19140625 250.9375 C227.1610022 251.27965546 226.13059814 251.62181091 225.06896973 251.97433472 C215.31785798 255.21723974 205.59411676 258.53767147 195.875 261.875 C181.46118324 266.82305842 167.01560973 271.66867415 152.55136108 276.46725464 C135.75170754 282.04063548 118.99113192 287.69512124 102.30914307 293.61169434 C90.01595685 297.97010535 77.67228242 302.15086596 65.28930664 306.24658203 C49.902362 311.33988549 34.56687445 316.58290282 19.23291016 321.83325195 C17.29069337 322.49691712 15.34847347 323.16057317 13.40625 323.82421875 C12.51316132 324.13092499 11.62007263 324.43763123 10.69992065 324.75363159 C9.87404449 325.03562408 9.04816833 325.31761658 8.19726562 325.6081543 C7.12103943 325.97688911 7.12103943 325.97688911 6.02307129 326.35307312 C4.04057308 326.98702576 2.01924741 327.49518815 0 328 C0 219.76 0 111.52 0 0 Z "
        fill="#E39654" transform="translate(516,622)" />
    <path
        d="M0 0 C0 105.93 0 211.86 0 321 C-5.50314423 319.77707906 -10.18029536 318.72725268 -15.34765625 316.84765625 C-16.56388672 316.41066406 -17.78011719 315.97367188 -19.03320312 315.5234375 C-20.00978882 315.16910645 -20.00978882 315.16910645 -21.00610352 314.80761719 C-37.58894255 308.79897125 -54.28995597 303.14275663 -71 297.5 C-86.57499926 292.23772118 -102.13826232 286.95473279 -117.625 281.4375 C-128.78211068 277.46400063 -139.97857043 273.63308314 -151.22338867 269.91430664 C-161.64943037 266.46292264 -172.04651439 262.93044064 -182.4375 259.375 C-184.15576019 258.78726767 -185.87402192 258.19953984 -187.59228516 257.61181641 C-190.25103795 256.70233016 -192.90977215 255.79278974 -195.56845093 254.88308716 C-205.66665535 251.42844714 -215.76862169 247.98486452 -225.87161255 244.54425049 C-227.88087356 243.85989014 -229.89005221 243.17528793 -231.8991394 242.49041748 C-234.7333436 241.52428157 -237.56781314 240.55892777 -240.40234375 239.59375 C-241.60981262 239.18190964 -241.60981262 239.18190964 -242.8416748 238.76174927 C-251.54759679 235.79939878 -260.27515493 232.90828169 -269 230 C-269 166.31 -269 102.62 -269 37 C-260.00039417 38.12495073 -260.00039417 38.12495073 -255.95092773 39.29663086 C-255.03119675 39.55950897 -254.11146576 39.82238708 -253.16386414 40.0932312 C-252.18037491 40.38086334 -251.19688568 40.66849548 -250.18359375 40.96484375 C-248.59421745 41.42167038 -248.59421745 41.42167038 -246.97273254 41.88772583 C-243.45938262 42.89883677 -239.94849238 43.91823579 -236.4375 44.9375 C-233.94321738 45.65680531 -231.44874725 46.37546071 -228.95410156 47.09350586 C-225.02444108 48.22479246 -221.09495928 49.35668363 -217.16629028 50.4914093 C-207.82004728 53.19074626 -198.46859398 55.8713372 -189.11328125 58.5390625 C-187.790074 58.91649647 -186.46686741 59.2939328 -185.1436615 59.67137146 C-179.86019039 61.17826045 -174.57654589 62.68454041 -169.29269409 64.19009399 C-155.08282809 68.23953924 -140.88203864 72.31596715 -126.703125 76.47265625 C-124.28097043 77.18041444 -121.85877091 77.88801882 -119.43652344 78.59545898 C-114.92108831 79.91426034 -110.40936437 81.24485501 -105.89941406 82.58227539 C-103.88100095 83.17252212 -101.86245412 83.76231184 -99.84375 84.3515625 C-98.94263489 84.62247208 -98.04151978 84.89338165 -97.11309814 85.17250061 C-91.22653995 86.87547697 -85.9905667 87.99685557 -80 86 C-76.65805125 83.77203417 -74.46152901 81.36973714 -71.91015625 78.296875 C-69.8827687 75.85903476 -67.76606769 73.52591828 -65.625 71.1875 C-62.59026816 67.83198275 -59.6958109 64.41161818 -56.875 60.875 C-52.34754877 55.27148201 -47.45649907 50.05059067 -42.49169922 44.83349609 C-36.7043503 38.74566496 -31.20355615 32.43750448 -25.77661133 26.02832031 C-20.3859045 19.66952103 -14.83349201 13.49584634 -9.10107422 7.44287109 C-6.21566363 4.4675383 -6.21566363 4.4675383 -4 1 C-1 0 -1 0 0 0 Z "
        fill="#E39655" transform="translate(493,627)" />
    <path
        d="M0 0 C11.89376075 2.44241073 23.72353356 5.04031698 35.5 8 C36.29337769 8.19820343 37.08675537 8.39640686 37.9041748 8.60061646 C58.247387 13.69375162 78.48872419 19.17895814 98.7447052 24.60587311 C122.38483199 30.93905873 146.04727847 37.12449621 169.81303406 42.97157288 C182.08000899 45.99610551 194.31943299 49.1304262 206.5625 52.25 C208.8134743 52.82276281 211.0644508 53.39551695 213.31542969 53.96826172 C228.88855349 57.93435834 244.44712494 61.9552866 260 66 C258.73562691 69.29411919 257.66049405 71.71675105 255.20703125 74.26953125 C254.66272461 74.84413086 254.11841797 75.41873047 253.55761719 76.01074219 C252.98172852 76.60532227 252.40583984 77.19990234 251.8125 77.8125 C250.62549509 79.06303658 249.43928977 80.31433265 248.25390625 81.56640625 C247.4033667 82.45996826 247.4033667 82.45996826 246.53564453 83.37158203 C244.17293378 85.87703207 241.92172325 88.47186514 239.671875 91.078125 C237.64241927 93.41105074 235.572353 95.70511245 233.5 98 C230.23295665 101.62023723 227.00479224 105.26983565 223.8046875 108.94921875 C221.77041859 111.26088797 219.6977769 113.5353143 217.625 115.8125 C214.42347567 119.35160002 211.36853937 122.97103106 208.375 126.6875 C205.32230896 130.46096532 202.17674078 133.94831966 198.6875 137.31640625 C196.82058378 139.1790009 195.09903289 141.12972918 193.375 143.125 C192.50294922 144.11693359 192.50294922 144.11693359 191.61328125 145.12890625 C190.22379969 146.74043571 188.88760097 148.39762954 187.5625 150.0625 C185 152 185 152 181.3293457 151.74951172 C177.19504243 151.1106755 173.18576835 150.098173 169.16796875 148.9453125 C168.40773407 148.7322345 167.64749939 148.51915649 166.86422729 148.29962158 C164.30371253 147.58032036 161.74565331 146.85265119 159.1875 146.125 C157.33208101 145.60191091 155.47652619 145.07930343 153.62084961 144.55712891 C148.29447447 143.05617144 142.97050882 141.54682245 137.64709473 140.03540039 C133.76594822 138.93355333 129.8844768 137.83285664 126.00292969 136.73242188 C115.13815469 133.6519638 104.27358411 130.57078567 93.40995407 127.48629189 C74.94774357 122.24451621 56.47774998 117.03435956 37.97744751 111.92845154 C31.48290413 110.13548979 24.99131698 108.33194743 18.5 106.52734375 C17.38315323 106.21692642 16.26630646 105.90650909 15.11561584 105.58668518 C9.33780286 103.98068196 3.56023527 102.37380193 -2.21704102 100.76586914 C-13.75100048 97.55754449 -25.28988222 94.36901237 -36.83984375 91.21875 C-40.10015593 90.32686507 -43.36032886 89.43447307 -46.62045288 88.54190063 C-48.69646261 87.97512724 -50.77313935 87.41079104 -52.85049438 86.84896851 C-55.70926252 86.07576295 -58.56574479 85.29460219 -61.421875 84.51171875 C-62.26809921 84.28532715 -63.11432343 84.05893555 -63.9861908 83.82568359 C-69.77240649 82.22759351 -69.77240649 82.22759351 -72 80 C-70.82244141 78.7315625 -70.82244141 78.7315625 -69.62109375 77.4375 C-63.005508 70.32771833 -63.005508 70.32771833 -56.5625 63.0625 C-53.30075647 59.28785332 -49.90260246 55.64711228 -46.5 52 C-42.52654041 47.74068804 -38.60361122 43.45665854 -34.796875 39.046875 C-32.44634976 36.36932016 -30.03681864 33.7471851 -27.625 31.125 C-19.23377253 21.99986265 -10.95386826 12.78398948 -2.88745117 3.36987305 C-2.07651253 2.42352242 -2.07651253 2.42352242 -1.24919128 1.45805359 C-0.83695816 0.9768959 -0.42472504 0.49573822 0 0 Z "
        fill="#E39654" transform="translate(219,537)" />
    <path
        d="M0 0 C2.39453125 2.0546875 2.39453125 2.0546875 4.8125 4.875 C5.24554443 5.37386719 5.67858887 5.87273438 6.12475586 6.38671875 C9.52321242 10.3342 12.79355784 14.38844345 16.015625 18.48046875 C21.81603807 25.84516645 27.84392772 33.02032814 33.91333008 40.16333008 C37.55825356 44.45951889 41.12765626 48.81341655 44.68359375 53.18359375 C47.27787235 56.33785155 49.91604673 59.45204343 52.5625 62.5625 C57.15049526 67.9567002 61.61736706 73.43694443 66 79 C63.05859832 80.96093446 61.09832634 81.64303799 57.72265625 82.515625 C56.66248291 82.7940625 55.60230957 83.0725 54.51000977 83.359375 C53.37233154 83.65328125 52.23465332 83.9471875 51.0625 84.25 C43.01698393 86.36709599 35.01080867 88.54247966 27.0625 91 C18.2849898 93.69704545 9.42353962 95.99223758 0.52685547 98.26049805 C-7.4616698 100.30962206 -15.39308856 102.5117255 -23.3125 104.8125 C-34.56014057 108.07478879 -45.85663077 111.10502535 -57.1875 114.0625 C-73.26414998 118.26068005 -89.28456992 122.62231493 -105.25073242 127.22509766 C-120.12317239 131.50435234 -135.03912867 135.62274917 -149.96362305 139.71582031 C-153.53391637 140.69511439 -157.10325567 141.67784215 -160.67240429 142.66129875 C-163.44535034 143.42478235 -166.21891808 144.1859871 -168.99267006 144.94653702 C-170.3114323 145.30853708 -171.62996615 145.67137027 -172.94826317 146.03506088 C-174.7697801 146.53733077 -176.5922639 147.03609032 -178.41479492 147.53466797 C-179.44843674 147.81857391 -180.48207855 148.10247986 -181.54704285 148.39498901 C-184 149 -184 149 -186 149 C-187.24814331 147.59321977 -188.4230839 146.12120296 -189.5625 144.625 C-193.14879152 140.02519131 -196.92038072 135.67712065 -200.84765625 131.3671875 C-203.33601906 128.63044002 -205.76454508 125.84585809 -208.19140625 123.0546875 C-210.24664777 120.71979109 -212.34243033 118.42420466 -214.4375 116.125 C-218.05454184 112.11824322 -221.4425862 107.98612838 -224.78515625 103.75 C-228.8727038 98.67480869 -233.16030596 93.76892284 -237.41796875 88.83642578 C-239.00198608 86.99769455 -240.58012237 85.15409059 -242.15625 83.30859375 C-242.92775391 82.40560547 -242.92775391 82.40560547 -243.71484375 81.484375 C-244.72809859 80.29837697 -245.74112422 79.11218306 -246.75390625 77.92578125 C-250.31405728 73.76752484 -253.95482967 69.69111913 -257.671875 65.671875 C-259 64 -259 64 -259 62 C-248.36600831 58.97515844 -237.72357163 56.12942109 -226.95175171 53.63534546 C-222.88353199 52.69237017 -218.81887527 51.73421786 -214.75390625 50.77734375 C-213.85062088 50.56489517 -212.94733551 50.35244659 -212.01667786 50.13356018 C-198.89358822 47.04070569 -185.79140189 43.86044785 -172.6875 40.6875 C-171.33707746 40.3606236 -169.98665428 40.03374983 -168.63623047 39.70687866 C-150.19145652 35.24155369 -131.75469876 30.74408833 -113.32443237 26.21923828 C-93.78723895 21.42360661 -74.23367094 16.6966747 -54.67675781 11.98217773 C-53.53543396 11.70700821 -52.39411011 11.43183868 -51.21820068 11.14833069 C-48.95167307 10.60238077 -46.68495164 10.05723482 -44.41802979 9.51292419 C-38.9507743 8.19921193 -33.48602549 6.87660935 -28.02730942 5.52788448 C-25.35754716 4.86869891 -22.68676504 4.21370029 -20.01590729 3.5589695 C-18.12244704 3.09294005 -16.23048308 2.62084452 -14.33856201 2.14860535 C-12.61491425 1.72663628 -12.61491425 1.72663628 -10.85644531 1.29614258 C-9.33824188 0.92009636 -9.33824188 0.92009636 -7.78936768 0.53645325 C-5.07048092 0.01355494 -2.7567404 -0.25281479 0 0 Z "
        fill="#E39654" transform="translate(792,541)" />
    <path
        d="M0 0 C1.06009277 0.2686084 2.12018555 0.5372168 3.21240234 0.81396484 C6.21981676 1.58441028 9.22204609 2.37223235 12.22280884 3.16812134 C27.15124905 7.11454989 42.15714436 10.6367294 57.23828125 13.95166016 C61.73983405 14.94135389 66.23925149 15.94054798 70.73860168 16.94020081 C92.55127731 21.78426666 114.36674477 26.59503124 136.27661133 30.98242188 C137.54657959 31.23830078 138.81654785 31.49417969 140.125 31.7578125 C141.22070312 31.9758252 142.31640625 32.19383789 143.4453125 32.41845703 C146 33 146 33 148 34 C146.47260916 37.42673696 144.45668829 40.05841282 142.0625 42.9375 C141.25941406 43.90558594 140.45632813 44.87367188 139.62890625 45.87109375 C136.46203032 49.64868172 133.27619153 53.41027285 130.08374023 57.16625977 C127.22266131 60.53677093 124.4080951 63.9394577 121.625 67.375 C116.98904849 73.06870872 112.17842852 78.60180496 107.35546875 84.13671875 C105.11428727 86.71045844 102.8882048 89.29602965 100.67578125 91.89453125 C100.14186768 92.52125732 99.6079541 93.1479834 99.05786133 93.79370117 C98.05208749 94.97600952 97.04790124 96.15967111 96.0456543 97.3449707 C95.13813935 98.41067486 94.21860522 99.46629114 93.28588867 100.51000977 C92.05152757 101.94029376 90.93767464 103.4719427 89.83203125 105.00390625 C86.57097031 107.30239196 86.01550754 107.22048372 82.23046875 106.67578125 C80.20991663 106.24990576 78.19584394 105.79266185 76.1875 105.3125 C73.8348535 104.80367809 71.48197303 104.29593726 69.12890625 103.7890625 C67.82173593 103.49790722 66.51460842 103.20655968 65.20751953 102.91503906 C60.70271979 101.92214225 56.18002229 101.03018447 51.65234375 100.1484375 C26.77751965 95.29432353 2.05086619 89.87876093 -22.66015625 84.2578125 C-25.14838788 83.69248991 -27.63666896 83.1273849 -30.125 82.5625 C-31.3524292 82.28341797 -32.5798584 82.00433594 -33.84448242 81.71679688 C-45.00110981 79.19468885 -56.18689153 76.81540244 -67.375 74.4375 C-106.88763791 66.03745403 -106.88763791 66.03745403 -116 63 C-116.86410295 58.03945153 -117.71820865 53.07731808 -118.56347656 48.11352539 C-118.85181374 46.42849456 -119.1427799 44.74391123 -119.43652344 43.05981445 C-119.86060553 40.62566977 -120.27490535 38.1900212 -120.6875 35.75390625 C-120.81874268 35.01290176 -120.94998535 34.27189728 -121.08520508 33.50843811 C-121.95739271 28.28024796 -122.11000484 23.30085835 -122 18 C-120.32550781 18.02356567 -120.32550781 18.02356567 -118.6171875 18.04760742 C-63.00364228 19.64840562 -63.00364228 19.64840562 -12.6015625 -0.86328125 C-8.25798377 -2.76115124 -4.44688936 -1.18311735 0 0 Z "
        fill="#E39655" transform="translate(701,413)" />
    <path
        d="M0 0 C6.27935684 25.64070708 10.4046914 51.5413389 10 78 C-0.85239599 80.97080868 -11.75153987 83.64442393 -22.7109375 86.1875 C-24.37518165 86.57555314 -26.03937532 86.96382283 -27.70352173 87.35229492 C-32.04631126 88.36548287 -36.38974414 89.37588419 -40.7333374 90.38562012 C-45.1116641 91.4039015 -49.48941239 92.42466282 -53.8671875 93.4453125 C-58.81754479 94.59938661 -63.76794336 95.7532775 -68.71884155 96.9050293 C-69.4714155 97.08022598 -70.22398945 97.25542267 -70.99936867 97.43592834 C-72.47784767 97.7798167 -73.95648117 98.12304162 -75.43527794 98.46556091 C-79.20288607 99.33995375 -82.96528061 100.23170854 -86.72247314 101.14990234 C-87.49213724 101.33622726 -88.26180134 101.52255219 -89.05478859 101.71452332 C-90.51479425 102.06861069 -91.97373391 102.42713546 -93.43134117 102.79096985 C-97.01062368 103.65498714 -100.31447229 104.34682362 -104 104 C-105.8515625 102.5234375 -105.8515625 102.5234375 -107.625 100.375 C-108.31464844 99.54871094 -109.00429687 98.72242188 -109.71484375 97.87109375 C-113.16785548 93.5326944 -116.60671076 89.18480156 -120.01171875 84.80859375 C-123.11971711 80.82734178 -126.304901 76.91146985 -129.5 73 C-134.11964592 67.3391244 -138.67966315 61.63707226 -143.17651367 55.87817383 C-145.85300025 52.45122432 -148.56820906 49.06069095 -151.3125 45.6875 C-154.83701632 41.30547249 -157.95991863 36.72635119 -161 32 C-150.96060609 29.31737883 -140.82354729 27.33067739 -130.625 25.375 C-128.83147276 25.02852081 -127.03801735 24.68166957 -125.24462891 24.33447266 C-122.4210837 23.787929 -119.59748536 23.24167331 -116.77365112 22.69662476 C-106.95047142 20.80044836 -97.13280779 18.87637097 -87.31524658 16.95135498 C-73.29626358 14.20331653 -59.27558721 11.46413969 -45.25 8.75 C-44.03586426 8.51498779 -42.82172852 8.27997559 -41.57080078 8.0378418 C-35.52792144 6.86983825 -29.48361166 5.70975224 -23.4375 4.55859375 C-22.22674805 4.3275293 -21.01599609 4.09646484 -19.76855469 3.85839844 C-17.48830625 3.42361335 -15.20772639 2.99056144 -12.92675781 2.55957031 C-11.42387207 2.27291504 -11.42387207 2.27291504 -9.890625 1.98046875 C-9.01438477 1.81442139 -8.13814453 1.64837402 -7.23535156 1.47729492 C-0.31662404 0 -0.31662404 0 0 0 Z "
        fill="#E39655" transform="translate(324,409)" />
    <path
        d="M0 0 C3.06881816 1.71904752 5.40357084 3.80714167 7 7 C8.08314283 24.42291273 7.87493649 42.15603293 3 59 C2.72712158 59.97573975 2.72712158 59.97573975 2.44873047 60.97119141 C-1.50563963 74.66483227 -8.99285887 85.97609648 -19 96 C-19.75925781 96.77085937 -20.51851562 97.54171875 -21.30078125 98.3359375 C-37.54921139 113.91953826 -58.67262926 120.40797955 -80.85449219 120.37084961 C-99.3680429 119.93066471 -115.37907927 111.01869335 -128.125 98 C-139.24785232 84.95941453 -144.12243229 67.74582906 -144.25 50.875 C-144.270625 50.18535156 -144.29125 49.49570312 -144.3125 48.78515625 C-144.34670802 44.3124572 -143.72241983 41.56210595 -141 38 C-137.56712978 35.15562182 -134.47424589 34.41778139 -130 34.5703125 C-126.38931815 35.34604493 -124.54734775 37.39052182 -122 40 C-120.89367713 42.21264574 -120.78056368 43.65743539 -120.60546875 46.11328125 C-119.41666838 61.0779235 -117.85296202 74.64355005 -107 86 C-98.01001157 92.9779434 -88.94867534 95.55319638 -77.75 95.4375 C-76.72874023 95.42992676 -75.70748047 95.42235352 -74.65527344 95.41455078 C-67.1527734 95.25062056 -60.7989212 94.33708518 -54 91 C-53.07445312 90.57589844 -52.14890625 90.15179687 -51.1953125 89.71484375 C-36.63190338 82.47348104 -26.2458338 70.33659412 -21 55 C-17.34982337 42.77373479 -16.5004655 30.46488212 -16.41479492 17.75708008 C-16.32353417 11.1021826 -15.90026612 6.34646091 -11.375 1.125 C-7.61126311 -0.65782274 -4.07460964 -0.77544474 0 0 Z "
        fill="#182229" transform="translate(720,738)" />
    <path
        d="M0 0 C8.99960583 1.12495073 8.99960583 1.12495073 13.04907227 2.29663086 C13.96880325 2.55950897 14.88853424 2.82238708 15.83613586 3.0932312 C17.31136971 3.52467941 17.31136971 3.52467941 18.81640625 3.96484375 C19.87599045 4.26939484 20.93557465 4.57394592 22.02726746 4.88772583 C25.54061738 5.89883677 29.05150762 6.91823579 32.5625 7.9375 C35.05678262 8.65680531 37.55125275 9.37546071 40.04589844 10.09350586 C43.97555892 11.22479246 47.90504072 12.35668363 51.83370972 13.4914093 C61.17995272 16.19074626 70.53140602 18.8713372 79.88671875 21.5390625 C81.209926 21.91649647 82.53313259 22.2939328 83.8563385 22.67137146 C89.13980961 24.17826045 94.42345411 25.68454041 99.70730591 27.19009399 C113.91717191 31.23953924 128.11796136 35.31596715 142.296875 39.47265625 C144.71902957 40.18041444 147.14122909 40.88801882 149.56347656 41.59545898 C154.07891169 42.91426034 158.59063563 44.24485501 163.10058594 45.58227539 C165.11899905 46.17252212 167.13754588 46.76231184 169.15625 47.3515625 C170.05736511 47.62247208 170.95848022 47.89338165 171.88690186 48.17250061 C177.77346005 49.87547697 183.0094333 50.99685557 189 49 C192.34042079 46.77305281 194.53631583 44.37268225 197.0859375 41.30078125 C199.13373514 38.8392449 201.27412534 36.48538301 203.4375 34.125 C207.84286883 29.25033071 211.95726048 24.17735034 216 19 C216.8125 20.6875 216.8125 20.6875 217 23 C215.87422973 24.1938698 214.73098019 25.37504876 213.51513672 26.47705078 C210.47773226 29.53011701 208.3578036 33.31560489 206.0625 36.9375 C205.22803345 38.2363916 205.22803345 38.2363916 204.37670898 39.56152344 C201.31426673 44.33679925 198.28271912 49.13159455 195.25 53.92578125 C194.63374756 54.89845947 194.01749512 55.8711377 193.38256836 56.87329102 C192.19993613 58.74250034 191.02085665 60.61396389 189.84594727 62.48803711 C188.25486796 65.00883075 186.63694884 67.50879227 185 70 C184.49452637 70.78568359 183.98905273 71.57136719 183.46826172 72.38085938 C182.72406982 73.46850586 182.72406982 73.46850586 181.96484375 74.578125 C181.53679443 75.2165332 181.10874512 75.85494141 180.66772461 76.51269531 C178.24963254 78.66919024 176.19248986 78.68304907 173 79 C170.27030945 78.51333618 170.27030945 78.51333618 167.44018555 77.63916016 C166.36108917 77.31290146 165.2819928 76.98664276 164.17019653 76.65049744 C162.42112503 76.10033714 162.42112503 76.10033714 160.63671875 75.5390625 C158.74236771 74.96081888 156.84801605 74.38257731 154.95363998 73.8044157 C152.92858778 73.18365881 150.90559619 72.55657228 148.88308716 71.92758179 C144.64015459 70.60828134 140.39182656 69.30702464 136.14233398 68.0090332 C131.75578254 66.66839169 127.36951932 65.32686125 122.98506165 63.97938538 C108.86636665 59.64075751 94.71889543 55.40152478 80.5625 51.1875 C78.22972511 50.49165544 75.89696138 49.79577347 73.56420898 49.09985352 C62.03599126 45.66442953 50.49917054 42.26009685 38.94921875 38.8984375 C37.2637368 38.40785606 37.2637368 38.40785606 35.54420471 37.90736389 C30.23216295 36.36250234 24.91890176 34.82200275 19.60375977 33.2878418 C18.65116776 33.01191193 17.69857574 32.73598206 16.71711731 32.45169067 C14.95535393 31.94139874 13.19301463 31.43308893 11.42997742 30.92721558 C10.65096573 30.70123688 9.87195404 30.47525818 9.06933594 30.24243164 C8.39964783 30.04943985 7.72995972 29.85644806 7.03997803 29.65760803 C4.65265261 28.88802897 2.32889913 27.93155965 0 27 C0 18.09 0 9.18 0 0 Z "
        fill="#AD723A" transform="translate(224,664)" />
    <path
        d="M0 0 C0 64.02 0 128.04 0 194 C-0.33 194 -0.66 194 -1 194 C-1.33 139.22 -1.66 84.44 -2 28 C-28.80485132 35.84514348 -28.80485132 35.84514348 -55.609375 43.69140625 C-69.13145069 47.63236394 -82.67588248 51.49508618 -96.22027588 55.35845947 C-99.58578877 56.31857437 -102.95108856 57.27943554 -106.31640625 58.24023438 C-107.65588279 58.62261297 -108.99536032 59.00498805 -110.33483887 59.38735962 C-112.98110548 60.14278076 -115.62734111 60.89831033 -118.27355957 61.65390015 C-124.18919318 63.34281588 -130.1051424 65.03058467 -136.02267838 66.71282482 C-137.97705463 67.26853101 -139.93127236 67.82479104 -141.88543701 68.38124084 C-144.30085761 69.06888531 -146.71657119 69.75550184 -149.13262939 70.44090271 C-150.21260193 70.74859085 -151.29257446 71.05627899 -152.40527344 71.37329102 C-153.34481873 71.64029312 -154.28436401 71.90729523 -155.25238037 72.18238831 C-157.22727177 72.77005855 -159.18438259 73.41874593 -161.12701416 74.10557556 C-164.88443553 75.27534447 -167.21213619 75.03305377 -171 74 C-175.15289812 70.22591353 -178.77364058 65.93011598 -182.4375 61.6875 C-183.01008545 61.02613037 -183.5826709 60.36476074 -184.17260742 59.68334961 C-187.98193626 55.25517477 -191.60312428 50.75562601 -195 46 C-194.67 45.34 -194.34 44.68 -194 44 C-193.05125 44.825 -192.1025 45.65 -191.125 46.5 C-186.50682729 49.77215017 -182.49133116 49.52151966 -177 49 C-173.35706438 48.28831196 -169.84795795 47.26210507 -166.30078125 46.17578125 C-165.28802124 45.87802292 -164.27526123 45.58026459 -163.23181152 45.27348328 C-161.05497074 44.63206243 -158.87988811 43.98464962 -156.70645142 43.33178711 C-150.89546101 41.58660373 -145.07157341 39.88525555 -139.25 38.17578125 C-138.0623555 37.82556915 -136.874711 37.47535706 -135.65107727 37.11453247 C-123.74149556 33.60909283 -111.78441689 30.28513865 -99.8125 27 C-97.96588908 26.49264032 -96.11929043 25.98523595 -94.27270508 25.4777832 C-91.5884094 24.74016095 -88.90409114 24.00262389 -86.21957397 23.26580811 C-79.41368973 21.3955182 -72.61600684 19.49679338 -65.8203125 17.58984375 C-53.70083795 14.18990674 -41.57110206 10.82811408 -29.43432617 7.49047852 C-27.14495649 6.8604087 -24.85590441 6.22918397 -22.56713867 5.59692383 C-19.20298016 4.66763605 -15.837935 3.74162785 -12.47265625 2.81640625 C-11.44584244 2.53213272 -10.41902863 2.24785919 -9.36109924 1.95497131 C-8.42088425 1.69727463 -7.48066925 1.43957794 -6.51196289 1.17407227 C-5.68579971 0.9464772 -4.85963654 0.71888214 -4.00843811 0.48439026 C-2 0 -2 0 0 0 Z "
        fill="#AA7039" transform="translate(787,664)" />
    <path
        d="M0 0 C7.79284536 5.68450706 13.08579336 13.24484528 15.28125 22.6640625 C16.7558217 35.39949183 16.0339856 48.1734432 8.53125 58.9765625 C2.54639933 66.19447285 -3.63057219 71.62648384 -13.09375 73.01171875 C-20.96928366 73.49163408 -26.92500858 70.7317603 -32.984375 65.83203125 C-41.78080222 57.57316347 -44.62664649 48.37624384 -45.05517578 36.52514648 C-45.27339772 23.87517974 -41.90340796 13.22947422 -33.0234375 3.87890625 C-23.66477132 -4.66140123 -11.21100456 -6.51548642 0 0 Z "
        fill="#18232A" transform="translate(530.71875,204.3359375)" />
    <path
        d="M0 0 C-1.35006825 4.36478376 -3.07991409 8.29434022 -5.125 12.375 C-12.47501828 27.67443645 -17.62770428 44.19623864 -20 61 C-34.63909257 54.90605216 -46.0776002 34.41101997 -53 21 C-54.20776206 17.37671381 -54.40040892 14.80388473 -54 11 C-41.505092 -1.22079667 -16.14248905 -0.2149148 0 0 Z "
        fill="#F8F5F3" transform="translate(335,197)" />
    <path
        d="M0 0 C6.79737901 1.87963641 13.47605613 4.05079647 20.109375 6.4453125 C20.109375 7.1053125 20.109375 7.7653125 20.109375 8.4453125 C18.55038562 9.53389116 16.93336856 10.53964918 15.296875 11.5078125 C0.33714112 20.77134002 -14.01590488 33.47515838 -24.41015625 47.72265625 C-24.89871094 48.29113281 -25.38726562 48.85960937 -25.890625 49.4453125 C-26.550625 49.4453125 -27.210625 49.4453125 -27.890625 49.4453125 C-31.39313736 39.88345375 -34.34600874 30.39621266 -36.265625 20.3828125 C-36.51650879 19.10047729 -36.51650879 19.10047729 -36.77246094 17.79223633 C-37.21538476 15.3468682 -37.58085546 12.91093767 -37.890625 10.4453125 C-37.9927832 9.63852051 -38.09494141 8.83172852 -38.20019531 8.00048828 C-38.51923836 3.48444327 -38.36444403 2.00521468 -35.33203125 -1.578125 C-25.09986238 -7.45494389 -10.71015223 -2.81976066 0 0 Z "
        fill="#F8F6F4" transform="translate(384.890625,113.5546875)" />
    <path
        d="M0 0 C0.05534912 1.03181396 0.11069824 2.06362793 0.16772461 3.12670898 C0.3778995 7.04258541 0.58865303 10.95843054 0.79956055 14.87426758 C0.88988183 16.55264482 0.98005672 18.23102995 1.07006836 19.90942383 C1.67973146 31.27504266 2.32004066 42.63836452 3 54 C-26.43319237 41.92983324 -26.43319237 41.92983324 -34 31 C-35.375 27.5625 -35.375 27.5625 -35 24 C-30.5276638 15.58355628 -9.94361083 0 0 0 Z "
        fill="#F7F5F3" transform="translate(310,296)" />
    <path
        d="M0 0 C9.45628932 4.92515069 17.92355831 15.20854692 22 25 C21.92225715 29.27585689 21.39465123 31.45445271 18.875 34.9375 C16 37 16 37 12.625 37.6875 C3.62456189 35.98052036 -1.64776369 26.79664759 -7 20 C-7.72832031 19.10410156 -8.45664062 18.20820313 -9.20703125 17.28515625 C-11.90084882 13.85185935 -12.41227575 11.46132084 -12.33984375 7.04296875 C-12 5 -12 5 -9.9375 2 C-6.21801238 -0.5324171 -4.423816 -0.69849726 0 0 Z "
        fill="#182128" transform="translate(687,244)" />
    <path
        d="M0 0 C7.875 6.75 7.875 6.75 11 11 C10.01 11.495 10.01 11.495 9 12 C7.02 9.69 5.04 7.38 3 5 C3 110.6 3 216.2 3 325 C9.93 322.69 16.86 320.38 24 318 C24.66 318.33 25.32 318.66 26 319 C20.21587027 321.38562033 14.38586986 323.62788884 8.5 325.75 C6.72109375 326.39195312 6.72109375 326.39195312 4.90625 327.046875 C2 328 2 328 0 328 C0 219.76 0 111.52 0 0 Z "
        fill="#E9A059" transform="translate(516,622)" />
    <path
        d="M0 0 C4.13507603 1.98003641 8.01983631 4.26354605 11.91796875 6.671875 C12.99788086 7.33775635 12.99788086 7.33775635 14.09960938 8.01708984 C15.84953667 9.13387548 17.54594644 10.33368076 19.23046875 11.546875 C19.23046875 12.206875 19.23046875 12.866875 19.23046875 13.546875 C18.61228271 13.67215576 17.99409668 13.79743652 17.35717773 13.92651367 C6.05236738 16.23993426 -5.03084011 18.63925733 -15.90625 22.53125 C-18.19208083 23.34204948 -20.40665635 24.01795896 -22.76953125 24.546875 C-21.6899858 2.984375 -21.6899858 2.984375 -18.14453125 -1.515625 C-11.85836882 -3.99700491 -6.04978001 -2.35506246 0 0 Z "
        fill="#F6F4F2" transform="translate(462.76953125,78.453125)" />
    <path
        d="M0 0 C2.97 0.495 2.97 0.495 6 1 C4.68 1.33 3.36 1.66 2 2 C2 9.92 2 17.84 2 26 C1.34 26.33 0.68 26.66 0 27 C0 18.09 0 9.18 0 0 Z "
        fill="#C17F3E" transform="translate(224,664)" />
    <path
        d="M0 0 C0.8125 1.6875 0.8125 1.6875 1 4 C-1.125 6.4375 -1.125 6.4375 -4 9 C-4.825 9.845625 -5.65 10.69125 -6.5 11.5625 C-8.88851225 13.89129944 -11.360462 15.96378497 -14 18 C-12.35044362 13.91068059 -9.42596684 11.02035178 -6.4375 7.875 C-2.81366093 4.23596593 -2.81366093 4.23596593 0 0 Z "
        fill="#B87A3F" transform="translate(440,683)" />
    <path
        d="M0 0 C5.60738263 0 8.27287863 0.76284124 12.3125 4.75 C14.95331282 7.63465998 17.24053858 10.48107716 19 14 C15.62417189 12.58361994 13.96269567 10.94652324 11.75 8.0625 C8.21577608 3.83829744 5.25567701 2.47527776 0 1 C0 0.67 0 0.34 0 0 Z "
        fill="#121619" transform="translate(483,313)" />
    <path
        d="M0 0 C0.66 0.33 1.32 0.66 2 1 C1.2884375 2.0828125 1.2884375 2.0828125 0.5625 3.1875 C-2.06850117 8.31298813 -1.75741185 14.36191673 -2 20 C-2.33 20 -2.66 20 -3 20 C-3.08112454 17.41603321 -3.14054748 14.83462432 -3.1875 12.25 C-3.21263672 11.52039063 -3.23777344 10.79078125 -3.26367188 10.0390625 C-3.30981636 6.65513396 -3.25324128 4.42141443 -1.48828125 1.484375 C-0.75158203 0.74960937 -0.75158203 0.74960937 0 0 Z "
        fill="#0F111B" transform="translate(708,740)" />
    <path
        d="M0 0 C0.33 0.66 0.66 1.32 1 2 C-4.75 5.875 -4.75 5.875 -7 7 C-10 5 -10 5 -11 3 C-7.37 2.01 -3.74 1.02 0 0 Z "
        fill="#DEDFDE" transform="translate(706,374)" />
    <path
        d="M0 0 C2.97 0.33 5.94 0.66 9 1 C7.64978174 5.41889613 5.73884332 7.34345343 2 10 C2.309375 9.4225 2.61875 8.845 2.9375 8.25 C3.92583364 6.15705816 4.5168613 4.25464725 5 2 C3.35 1.67 1.7 1.34 0 1 C0 0.67 0 0.34 0 0 Z "
        fill="#E8A75F" transform="translate(470,602)" />
    <path
        d="M0 0 C-1.81817001 2.31459868 -2.75615543 2.95377187 -5.69921875 3.51171875 C-6.68535156 3.56972656 -7.67148437 3.62773438 -8.6875 3.6875 C-9.68136719 3.75324219 -10.67523437 3.81898438 -11.69921875 3.88671875 C-12.45847656 3.92410156 -13.21773437 3.96148438 -14 4 C-10.28835785 0.28835785 -5.09745779 -0.30893684 0 0 Z "
        fill="#14161F" transform="translate(620,687)" />
    <path
        d="M0 0 C4.455 0.99 4.455 0.99 9 2 C9 2.33 9 2.66 9 3 C7.9275 2.979375 6.855 2.95875 5.75 2.9375 C2.85209576 2.9857984 0.71387859 3.13155885 -2 4 C-2 4.66 -2 5.32 -2 6 C-2.66 5.67 -3.32 5.34 -4 5 C-2.68 3.35 -1.36 1.7 0 0 Z "
        fill="#E8A65C" transform="translate(219,537)" />
    <path
        d="M0 0 C0.99 0 1.98 0 3 0 C3.25 6.625 3.25 6.625 1 10 C-0.1577506 6.52674819 -0.06866652 3.63932552 0 0 Z "
        fill="#242C32" transform="translate(354,463)" />
    <path
        d="M0 0 C0.99 0.33 1.98 0.66 3 1 C3 1.99 3 2.98 3 4 C0.09399739 5.25664978 -1.79604584 6 -5 6 C-3.35 4.02 -1.7 2.04 0 0 Z "
        fill="#E8A25A" transform="translate(489,628)" />
    <path
        d="M0 0 C2.29013653 3.4352048 2.17842973 4.985331 2 9 C1.01 9 0.02 9 -1 9 C-1.09765625 2.84765625 -1.09765625 2.84765625 -1 1 C-0.67 0.67 -0.34 0.34 0 0 Z "
        fill="#212A30" transform="translate(769,293)" />
    <path
        d="M0 0 C0.33 0 0.66 0 1 0 C1 1.98 1 3.96 1 6 C1.99 6.33 2.98 6.66 4 7 C2.35 7.66 0.7 8.32 -1 9 C-0.67 6.03 -0.34 3.06 0 0 Z "
        fill="#EBEBEA" transform="translate(441,94)" />
    <path
        d="M0 0 C0.99 0 1.98 0 3 0 C2.67 3.63 2.34 7.26 2 11 C1.67 11 1.34 11 1 11 C0.67 7.37 0.34 3.74 0 0 Z "
        fill="#222C33" transform="translate(487,226)" />
</svg>